<?xml version="1.0" encoding="utf-8"?>
<!-- Generator: Adobe Illustrator 18.0.0, SVG Export Plug-In . SVG Version: 6.00 Build 0)  -->
<!DOCTYPE svg PUBLIC "-//W3C//DTD SVG 1.1//EN" "http://www.w3.org/Graphics/SVG/1.1/DTD/svg11.dtd">
<svg version="1.1" id="Calque_1" xmlns="http://www.w3.org/2000/svg" xmlns:xlink="http://www.w3.org/1999/xlink" x="0px" y="0px"
	 viewBox="0 0 1024 1024" enable-background="new 0 0 1024 1024" xml:space="preserve">
<g>
	<g>
		<g>
			<polygon points="861.3,156.9 849.3,150.9 597.2,561.2 605,573.9 			"/>
			<polygon points="805.8,129.1 793.8,123.1 560.8,502.3 568.6,515 			"/>
			<polygon points="778,115.2 766,109.3 542.6,472.9 550.5,485.5 			"/>
			<polygon points="506.3,413.9 514.1,426.6 722.5,87.5 710.5,81.5 			"/>
			<polygon points="750.2,101.4 738.3,95.4 524.5,443.4 532.3,456.1 			"/>
			<polygon points="833.5,143 821.6,137 579,531.8 586.8,544.5 			"/>
			<path d="M694.7,73.6l-2.6-1.3c-1.7-0.9-3.3-1.1-4.7-0.9c-4-0.1-8.1,1.9-10.2,5.4L488,384.2l8,12.9L694.7,73.6z"/>
			<polygon points="688.1,708.6 697.4,723.7 1002.4,227.4 988.1,220.3 			"/>
			<polygon points="972.3,212.4 960.4,206.4 669.9,679.1 677.7,691.8 			"/>
			<polygon points="916.8,184.6 904.8,178.7 633.6,620.2 641.4,632.9 			"/>
			<polygon points="889,170.8 877.1,164.8 615.4,590.7 623.2,603.4 			"/>
			<polygon points="944.5,198.5 932.6,192.5 651.7,649.6 659.6,662.3 			"/>
		</g>
		<g>
			<polygon points="846.8,574.7 841,584.1 841,872.1 846.8,875 			"/>
			<polygon points="906.5,477.6 900.7,487.1 900.7,902 906.5,904.8 			"/>
			<polygon points="827,607.1 821.2,616.5 821.2,862.2 827,865.1 			"/>
			<polygon points="866.7,542.4 860.9,551.8 860.9,882.1 866.7,885 			"/>
			<polygon points="781.4,842.3 787.2,845.2 787.2,671.8 781.4,681.2 			"/>
			<path d="M1000.1,951.2c2,0.6,3.9,1,5.8,1.1V315.9l-5.8,9.4V951.2z"/>
			<polygon points="807.1,639.4 801.3,648.8 801.3,852.3 807.1,855.1 			"/>
			<polygon points="886.6,510 880.8,519.4 880.8,892 886.6,894.9 			"/>
			<polygon points="767.3,704.1 761.5,713.5 761.5,827.6 765.8,834.5 767.3,835.3 			"/>
			<polygon points="926.4,445.3 920.6,454.7 920.6,911.9 926.4,914.8 			"/>
			<polygon points="741.7,795.4 747.4,804.8 747.4,736.5 741.7,745.9 			"/>
			<path d="M1018.5,295.4h1.5v650.7c2.5-3.5,4-8.3,4-14.2V286.4L1018.5,295.4z"/>
			<polygon points="727.6,768.8 726.4,770.7 727.6,772.5 			"/>
			<polygon points="986,348.2 980.2,357.7 980.2,941.7 986,944.6 			"/>
			<polygon points="946.2,412.9 940.4,422.4 940.4,921.8 946.2,924.7 			"/>
			<polygon points="966.1,380.6 960.3,390 960.3,931.8 966.1,934.7 			"/>
		</g>
	</g>
	<g>
		<g>
			<polygon points="636,769.8 682.2,792.9 390.4,320 390.4,371.8 			"/>
			<polygon points="390.4,405.3 390.4,457.4 559.6,731.6 606.1,754.9 			"/>
			<polygon points="478.1,690.9 529.7,716.6 390.4,491 390.4,548.8 			"/>
			<polygon points="390.4,582.3 390.4,647 448.1,675.9 			"/>
		</g>
		<path d="M341.1,239.1c-1-1-2.2-1.8-3.5-2.5L37.8,86.7c0,0,0,0,0,0l-18.9-9.4C8.5,72.1,0,77.3,0,88.9V772
			c0,11.6,8.5,25.4,18.9,30.6l294.1,147c14.4,7.2,26.3,1,28.1-13.6V239.1z"/>
	</g>
</g>
</svg>
